<svg width="43" height="49" viewBox="0 0 43 49" fill="none" xmlns="http://www.w3.org/2000/svg">
<g filter="url(#filter0_d_352_411)">
<path d="M36.4583 20.3112V14.857C36.4583 13.8845 36.0984 12.9519 35.4576 12.2643C34.8169 11.5766 33.9478 11.1903 33.0417 11.1903H22.7917V8.785C23.3127 8.28267 23.6458 7.56033 23.6458 6.75C23.6458 6.02065 23.3759 5.32118 22.8953 4.80546C22.4147 4.28973 21.763 4 21.0833 4C20.4037 4 19.7519 4.28973 19.2714 4.80546C18.7908 5.32118 18.5208 6.02065 18.5208 6.75C18.5208 7.56033 18.854 8.28267 19.375 8.785V11.1903H9.125C8.21884 11.1903 7.3498 11.5766 6.70905 12.2643C6.0683 12.9519 5.70833 13.8845 5.70833 14.857V20.3533L5.58533 20.3625C5.15464 20.3954 4.75159 20.6023 4.45741 20.9415C4.16322 21.2807 3.99977 21.727 4 22.1903V25.857C4 26.3432 4.17998 26.8095 4.50036 27.1534C4.82073 27.4972 5.25526 27.6903 5.70833 27.6903V36.857C5.70833 37.8295 6.0683 38.7621 6.70905 39.4497C7.3498 40.1374 8.21884 40.5237 9.125 40.5237H33.0417C33.9478 40.5237 34.8169 40.1374 35.4576 39.4497C36.0984 38.7621 36.4583 37.8295 36.4583 36.857V27.6903C36.9114 27.6903 37.3459 27.4972 37.6663 27.1534C37.9867 26.8095 38.1667 26.3432 38.1667 25.857V22.304C38.1865 22.0195 38.1444 21.7339 38.0437 21.4698C37.6986 20.5752 36.9589 20.3607 36.4583 20.3112ZM12.5417 22.1903C12.5417 20.1663 13.6897 18.5237 15.1042 18.5237C16.5187 18.5237 17.6667 20.1663 17.6667 22.1903C17.6667 24.2143 16.5187 25.857 15.1042 25.857C13.6897 25.857 12.5417 24.2143 12.5417 22.1903ZM27.9133 33.1903C26.2032 33.1848 14.25 33.1903 14.25 33.1903V29.5237C14.25 29.5237 26.21 29.52 27.9201 29.5237L27.9133 33.1903ZM27.0625 25.857C25.648 25.857 24.5 24.2143 24.5 22.1903C24.5 20.1663 25.648 18.5237 27.0625 18.5237C28.477 18.5237 29.625 20.1663 29.625 22.1903C29.625 24.2143 28.477 25.857 27.0625 25.857Z" fill="black"/>
</g>
<defs>
<filter id="filter0_d_352_411" x="-3" y="0" width="49" height="52" filterUnits="userSpaceOnUse" color-interpolation-filters="sRGB">
<feFlood flood-opacity="0" result="BackgroundImageFix"/>
<feColorMatrix in="SourceAlpha" type="matrix" values="0 0 0 0 0 0 0 0 0 0 0 0 0 0 0 0 0 0 127 0" result="hardAlpha"/>
<feOffset dy="4"/>
<feGaussianBlur stdDeviation="2"/>
<feComposite in2="hardAlpha" operator="out"/>
<feColorMatrix type="matrix" values="0 0 0 0 0 0 0 0 0 0 0 0 0 0 0 0 0 0 0.25 0"/>
<feBlend mode="normal" in2="BackgroundImageFix" result="effect1_dropShadow_352_411"/>
<feBlend mode="normal" in="SourceGraphic" in2="effect1_dropShadow_352_411" result="shape"/>
</filter>
</defs>
</svg>
