<svg width="24" height="24" viewBox="0 0 24 24" fill="none" xmlns="http://www.w3.org/2000/svg">
<g clip-path="url(#clip0_323_328)">
<path fill-rule="evenodd" clip-rule="evenodd" d="M8.29303 12.7069C8.10556 12.5193 8.00024 12.265 8.00024 11.9999C8.00024 11.7347 8.10556 11.4804 8.29303 11.2929L13.95 5.63585C14.0423 5.54034 14.1526 5.46416 14.2746 5.41175C14.3966 5.35934 14.5279 5.33176 14.6606 5.3306C14.7934 5.32945 14.9251 5.35475 15.048 5.40503C15.1709 5.45531 15.2825 5.52957 15.3764 5.62346C15.4703 5.71735 15.5446 5.829 15.5949 5.9519C15.6451 6.0748 15.6704 6.20648 15.6693 6.33926C15.6681 6.47204 15.6405 6.60325 15.5881 6.72526C15.5357 6.84726 15.4595 6.95761 15.364 7.04985L10.414 11.9999L15.364 16.9499C15.5462 17.1385 15.647 17.3911 15.6447 17.6533C15.6424 17.9155 15.5373 18.1663 15.3518 18.3517C15.1664 18.5371 14.9156 18.6423 14.6534 18.6445C14.3912 18.6468 14.1386 18.546 13.95 18.3639L8.29303 12.7069Z" fill="#9F9F9F"/>
</g>
<defs>
<clipPath id="clip0_323_328">
<rect width="24" height="24" fill="white"/>
</clipPath>
</defs>
</svg>
