<svg width="24" height="24" viewBox="0 0 24 24" fill="none" xmlns="http://www.w3.org/2000/svg">
<path d="M21.375 16.4063C21.2893 16.4551 21.1948 16.4866 21.097 16.4989C20.9991 16.5112 20.8998 16.5041 20.8047 16.478C20.7097 16.4518 20.6207 16.4072 20.5428 16.3467C20.465 16.2861 20.3999 16.2108 20.3512 16.125L18.57 13.0125C17.5344 13.7127 16.392 14.2402 15.1875 14.5744L15.7378 17.8763C15.754 17.9735 15.7509 18.0729 15.7287 18.1689C15.7065 18.2649 15.6656 18.3556 15.6083 18.4358C15.551 18.516 15.4784 18.5841 15.3948 18.6363C15.3112 18.6884 15.2181 18.7236 15.1209 18.7397C15.0809 18.7462 15.0405 18.7497 15 18.75C14.8225 18.7498 14.6509 18.6866 14.5157 18.5718C14.3804 18.4569 14.2903 18.2979 14.2612 18.1228L13.7203 14.881C12.5795 15.0397 11.4223 15.0397 10.2815 14.881L9.74058 18.1228C9.71147 18.2982 9.62103 18.4575 9.48538 18.5724C9.34974 18.6872 9.1777 18.7502 8.99995 18.75C8.9585 18.7498 8.91712 18.7464 8.8762 18.7397C8.77898 18.7236 8.6859 18.6884 8.60227 18.6363C8.51864 18.5841 8.44611 18.516 8.38882 18.4358C8.33153 18.3556 8.29061 18.2649 8.26839 18.1689C8.24617 18.0729 8.24309 17.9735 8.25933 17.8763L8.81245 14.5744C7.60835 14.2391 6.46664 13.7107 5.43183 13.0097L3.6562 16.125C3.60696 16.2108 3.54129 16.2861 3.46296 16.3465C3.38462 16.407 3.29515 16.4514 3.19965 16.4772C3.10415 16.5031 3.00449 16.5099 2.90637 16.4972C2.80825 16.4846 2.71358 16.4527 2.62776 16.4035C2.54195 16.3542 2.46668 16.2885 2.40625 16.2102C2.34582 16.1319 2.30141 16.0424 2.27555 15.9469C2.24969 15.8514 2.2429 15.7517 2.25556 15.6536C2.26822 15.5555 2.30008 15.4608 2.34933 15.375L4.22433 12.0938C3.56573 11.5248 2.96013 10.8972 2.41495 10.2188C2.34696 10.1429 2.29516 10.0539 2.2627 9.95729C2.23024 9.86069 2.2178 9.75849 2.22616 9.65693C2.23451 9.55536 2.26347 9.45657 2.31127 9.36657C2.35908 9.27657 2.42472 9.19726 2.5042 9.13347C2.58367 9.06969 2.67531 9.02277 2.77353 8.99558C2.87174 8.96839 2.97446 8.9615 3.07542 8.97533C3.17639 8.98916 3.27347 9.02342 3.36075 9.07602C3.44804 9.12862 3.52368 9.19846 3.58308 9.28127C5.13933 11.2069 7.86183 13.5 12 13.5C16.1381 13.5 18.8606 11.2041 20.4168 9.28127C20.4755 9.19676 20.551 9.12525 20.6386 9.07117C20.7261 9.01708 20.8238 8.9816 20.9257 8.96691C21.0275 8.95222 21.1313 8.95865 21.2306 8.98579C21.3298 9.01293 21.4224 9.06021 21.5026 9.12468C21.5828 9.18915 21.6489 9.26943 21.6968 9.36054C21.7446 9.45164 21.7732 9.55161 21.7807 9.65423C21.7883 9.75686 21.7746 9.85993 21.7406 9.95706C21.7066 10.0542 21.653 10.1433 21.5831 10.2188C21.0379 10.8972 20.4323 11.5248 19.7737 12.0938L21.6487 15.375C21.699 15.4606 21.7319 15.5552 21.7454 15.6535C21.7588 15.7519 21.7527 15.8519 21.7272 15.9478C21.7017 16.0437 21.6575 16.1337 21.597 16.2123C21.5366 16.291 21.4611 16.357 21.375 16.4063Z" fill="#575353"/>
</svg>
