<svg width="16" height="16" viewBox="0 0 16 16" fill="none" xmlns="http://www.w3.org/2000/svg">
<path d="M10 10.6668L7.33333 13.3334H14V10.6668H10ZM8.04 4.79343L2 10.8334V13.3334H4.5L10.54 7.29343L8.04 4.79343ZM3.94667 12.0001H3.33333V11.3868L8.04 6.68009L8.65333 7.29343L3.94667 12.0001ZM12.4733 5.36009C12.5351 5.29842 12.5842 5.22516 12.6176 5.14451C12.6511 5.06386 12.6683 4.97741 12.6683 4.89009C12.6683 4.80278 12.6511 4.71633 12.6176 4.63568C12.5842 4.55503 12.5351 4.48177 12.4733 4.42009L10.9133 2.86009C10.7883 2.73609 10.6194 2.6665 10.4433 2.6665C10.2673 2.6665 10.0983 2.73609 9.97333 2.86009L8.75333 4.08009L11.2533 6.58009L12.4733 5.36009Z" fill="#676868"/>
</svg>
