<svg width="20" height="20" viewBox="0 0 20 20" fill="none" xmlns="http://www.w3.org/2000/svg">
<path d="M1.6665 10.0002C1.6665 6.85766 1.6665 5.286 2.64317 4.31016C3.619 3.3335 5.19067 3.3335 8.33317 3.3335H11.6665C14.809 3.3335 16.3807 3.3335 17.3565 4.31016C18.3332 5.286 18.3332 6.85766 18.3332 10.0002V11.6668C18.3332 14.8093 18.3332 16.381 17.3565 17.3568C16.3807 18.3335 14.809 18.3335 11.6665 18.3335H8.33317C5.19067 18.3335 3.619 18.3335 2.64317 17.3568C1.6665 16.381 1.6665 14.8093 1.6665 11.6668V10.0002Z" stroke="#646464" stroke-width="1.5"/>
<path d="M5.83301 3.3335V2.0835M14.1663 3.3335V2.0835M2.08301 7.50016H17.9163" stroke="#646464" stroke-width="1.5" stroke-linecap="round"/>
<path d="M15 14.1667C15 14.3877 14.9122 14.5996 14.7559 14.7559C14.5996 14.9122 14.3877 15 14.1667 15C13.9457 15 13.7337 14.9122 13.5774 14.7559C13.4211 14.5996 13.3333 14.3877 13.3333 14.1667C13.3333 13.9457 13.4211 13.7337 13.5774 13.5774C13.7337 13.4211 13.9457 13.3333 14.1667 13.3333C14.3877 13.3333 14.5996 13.4211 14.7559 13.5774C14.9122 13.7337 15 13.9457 15 14.1667ZM15 10.8333C15 11.0543 14.9122 11.2663 14.7559 11.4226C14.5996 11.5789 14.3877 11.6667 14.1667 11.6667C13.9457 11.6667 13.7337 11.5789 13.5774 11.4226C13.4211 11.2663 13.3333 11.0543 13.3333 10.8333C13.3333 10.6123 13.4211 10.4004 13.5774 10.2441C13.7337 10.0878 13.9457 10 14.1667 10C14.3877 10 14.5996 10.0878 14.7559 10.2441C14.9122 10.4004 15 10.6123 15 10.8333ZM10.8333 14.1667C10.8333 14.3877 10.7455 14.5996 10.5893 14.7559C10.433 14.9122 10.221 15 10 15C9.77899 15 9.56702 14.9122 9.41074 14.7559C9.25446 14.5996 9.16667 14.3877 9.16667 14.1667C9.16667 13.9457 9.25446 13.7337 9.41074 13.5774C9.56702 13.4211 9.77899 13.3333 10 13.3333C10.221 13.3333 10.433 13.4211 10.5893 13.5774C10.7455 13.7337 10.8333 13.9457 10.8333 14.1667ZM10.8333 10.8333C10.8333 11.0543 10.7455 11.2663 10.5893 11.4226C10.433 11.5789 10.221 11.6667 10 11.6667C9.77899 11.6667 9.56702 11.5789 9.41074 11.4226C9.25446 11.2663 9.16667 11.0543 9.16667 10.8333C9.16667 10.6123 9.25446 10.4004 9.41074 10.2441C9.56702 10.0878 9.77899 10 10 10C10.221 10 10.433 10.0878 10.5893 10.2441C10.7455 10.4004 10.8333 10.6123 10.8333 10.8333ZM6.66667 14.1667C6.66667 14.3877 6.57887 14.5996 6.42259 14.7559C6.26631 14.9122 6.05435 15 5.83333 15C5.61232 15 5.40036 14.9122 5.24408 14.7559C5.0878 14.5996 5 14.3877 5 14.1667C5 13.9457 5.0878 13.7337 5.24408 13.5774C5.40036 13.4211 5.61232 13.3333 5.83333 13.3333C6.05435 13.3333 6.26631 13.4211 6.42259 13.5774C6.57887 13.7337 6.66667 13.9457 6.66667 14.1667ZM6.66667 10.8333C6.66667 11.0543 6.57887 11.2663 6.42259 11.4226C6.26631 11.5789 6.05435 11.6667 5.83333 11.6667C5.61232 11.6667 5.40036 11.5789 5.24408 11.4226C5.0878 11.2663 5 11.0543 5 10.8333C5 10.6123 5.0878 10.4004 5.24408 10.2441C5.40036 10.0878 5.61232 10 5.83333 10C6.05435 10 6.26631 10.0878 6.42259 10.2441C6.57887 10.4004 6.66667 10.6123 6.66667 10.8333Z" fill="#646464"/>
</svg>
