<svg width="20" height="20" viewBox="0 0 20 20" fill="none" xmlns="http://www.w3.org/2000/svg">
<path d="M18.3109 16.4063C17.2397 14.5264 15.5672 13.0616 13.5624 12.2477C14.5594 11.5 15.2958 10.4575 15.6674 9.26805C16.0389 8.07856 16.0268 6.80231 15.6327 5.62008C15.2387 4.43785 14.4826 3.40958 13.4717 2.68093C12.4607 1.95228 11.2461 1.56018 9.99994 1.56018C8.75376 1.56018 7.53918 1.95228 6.52822 2.68093C5.51727 3.40958 4.76121 4.43785 4.36714 5.62008C3.97306 6.80231 3.96095 8.07856 4.33252 9.26805C4.70409 10.4575 5.4405 11.5 6.43744 12.2477C4.43269 13.0616 2.76013 14.5264 1.68901 16.4063C1.62263 16.513 1.5784 16.632 1.55893 16.7561C1.53946 16.8803 1.54515 17.0071 1.57566 17.129C1.60618 17.2509 1.66089 17.3655 1.73656 17.4658C1.81222 17.5662 1.90729 17.6503 2.01611 17.7131C2.12493 17.776 2.24528 17.8164 2.37 17.8318C2.49473 17.8472 2.62128 17.8374 2.74214 17.803C2.86301 17.7685 2.9757 17.7101 3.07354 17.6312C3.17138 17.5523 3.25236 17.4546 3.31166 17.3438C4.72729 14.8969 7.22728 13.4375 9.99994 13.4375C12.7726 13.4375 15.2726 14.8977 16.6882 17.3438C16.8167 17.5504 17.0206 17.699 17.2567 17.7581C17.4928 17.8172 17.7426 17.7822 17.9533 17.6604C18.164 17.5387 18.3192 17.3398 18.3859 17.1057C18.4526 16.8717 18.4257 16.6208 18.3109 16.4063ZM5.93744 7.50003C5.93744 6.69654 6.1757 5.9111 6.6221 5.24302C7.06849 4.57495 7.70297 4.05425 8.44529 3.74676C9.18761 3.43928 10.0044 3.35883 10.7925 3.51558C11.5805 3.67234 12.3044 4.05925 12.8726 4.6274C13.4407 5.19555 13.8276 5.91942 13.9844 6.70747C14.1411 7.49552 14.0607 8.31235 13.7532 9.05468C13.4457 9.797 12.925 10.4315 12.2569 10.8779C11.5889 11.3243 10.8034 11.5625 9.99994 11.5625C8.92288 11.5613 7.89029 11.1329 7.12869 10.3713C6.36709 9.60968 5.93868 8.57709 5.93744 7.50003Z" fill="#959595"/>
</svg>
